<svg preserveAspectRatio="none" width="100%" height="100%" overflow="visible" style="display: block;" viewBox="0 0 24 24" fill="none" xmlns="http://www.w3.org/2000/svg">
<g id="favorite">
<mask id="mask0_832_15095" style="mask-type:alpha" maskUnits="userSpaceOnUse" x="0" y="0" width="24" height="24">
<rect id="Bounding box" width="24" height="24" fill="var(--fill-0, #D9D9D9)"/>
</mask>
<g mask="url(#mask0_832_15095)">
<g id="favorite_2">
<path d="M11.9803 21.691L10.2052 20.0942C8.48425 18.5494 7.062 17.2128 5.9385 16.0845C4.815 14.9561 3.92583 13.9427 3.271 13.0442C2.61633 12.1457 2.1575 11.3156 1.8945 10.554C1.6315 9.79246 1.5 9.00479 1.5 8.19096C1.5 6.48346 2.07083 5.05746 3.2125 3.91296C4.35417 2.76863 5.77675 2.19646 7.48025 2.19646C8.33692 2.19646 9.15233 2.36096 9.9265 2.68996C10.7008 3.01879 11.3854 3.49304 11.9803 4.11271C12.5753 3.49304 13.2598 3.01879 14.034 2.68996C14.8083 2.36096 15.6237 2.19646 16.4802 2.19646C18.1919 2.19646 19.6213 2.76863 20.7685 3.91296C21.9155 5.05746 22.489 6.48346 22.489 8.19096C22.489 8.99529 22.3598 9.77829 22.1015 10.54C21.8432 11.3015 21.3843 12.1291 20.725 13.023C20.0655 13.9168 19.1717 14.9302 18.0435 16.0632C16.9152 17.1962 15.4858 18.5399 13.7555 20.0942L11.9803 21.691ZM11.9803 18.129C13.5614 16.6956 14.8617 15.4782 15.881 14.4767C16.9002 13.4754 17.7027 12.6026 18.2885 11.8585C18.8743 11.1141 19.2793 10.4572 19.5033 9.88771C19.7271 9.31821 19.839 8.75271 19.839 8.19121C19.839 7.22871 19.5197 6.43063 18.8812 5.79696C18.2429 5.16329 17.4449 4.84646 16.4872 4.84646C15.7371 4.84646 15.0381 5.06729 14.3903 5.50896C13.7424 5.95063 13.2935 6.51313 13.0435 7.19646H10.9315C10.686 6.51313 10.2358 5.95063 9.581 5.50896C8.92617 5.06729 8.22725 4.84646 7.48425 4.84646C6.53558 4.84646 5.74508 5.16329 5.11275 5.79696C4.48025 6.43063 4.164 7.22863 4.164 8.19096C4.164 8.76263 4.27808 9.33829 4.50625 9.91796C4.73425 10.4978 5.1415 11.1593 5.728 11.9025C6.31433 12.6455 7.11242 13.5154 8.12225 14.5122C9.13208 15.5089 10.4181 16.7145 11.9803 18.129Z" fill="var(--fill-0, black)"/>
<path d="M11.9803 18.129C13.5614 16.6956 14.8617 15.4782 15.881 14.4767C16.9002 13.4754 17.7027 12.6026 18.2885 11.8585C18.8743 11.1141 19.2793 10.4572 19.5033 9.88771C19.7271 9.31821 19.839 8.75271 19.839 8.19121C19.839 7.22871 19.5197 6.43063 18.8812 5.79696C18.2429 5.16329 17.4449 4.84646 16.4872 4.84646C15.7371 4.84646 15.0381 5.06729 14.3903 5.50896C13.7424 5.95063 13.2935 6.51313 13.0435 7.19646H10.9315C10.686 6.51313 10.2358 5.95063 9.581 5.50896C8.92617 5.06729 8.22725 4.84646 7.48425 4.84646C6.53558 4.84646 5.74508 5.16329 5.11275 5.79696C4.48025 6.43063 4.164 7.22863 4.164 8.19096C4.164 8.76263 4.27808 9.33829 4.50625 9.91796C4.73425 10.4978 5.1415 11.1593 5.728 11.9025C6.31433 12.6455 7.11242 13.5154 8.12225 14.5122C9.13208 15.5089 10.4181 16.7145 11.9803 18.129Z" fill="white"/>
<path d="M16.4805 2.69646C18.0678 2.69651 19.3674 3.22186 20.415 4.26677C21.4625 5.31193 21.9892 6.60812 21.9893 8.1906C21.9893 8.94023 21.8687 9.66921 21.6279 10.3791C21.3911 11.0771 20.9617 11.8588 20.3223 12.7258C19.6822 13.5932 18.807 14.5878 17.6895 15.7101C16.5699 16.8344 15.1471 18.1712 13.4209 19.7218V19.7228L11.9795 21.0177L10.54 19.7228L10.5391 19.7218C8.82235 18.1809 7.40761 16.851 6.29297 15.7316C5.18058 14.6144 4.30966 13.6212 3.6748 12.7502C3.03914 11.8778 2.60916 11.0915 2.36719 10.3908C2.12251 9.68234 2 8.94946 2 8.1906C2.00008 6.60738 2.524 5.31079 3.56641 4.26579C4.60878 3.22105 5.90189 2.69646 7.48047 2.69646C8.27103 2.69649 9.01945 2.84843 9.73047 3.15056H9.73145C10.442 3.45238 11.0703 3.88738 11.6191 4.45915L11.9805 4.83513L12.3408 4.45915C12.8214 3.95867 13.3629 3.56299 13.9668 3.2697L14.2295 3.15056C14.9409 2.84832 15.6899 2.69646 16.4805 2.69646ZM16.4873 4.34685C15.632 4.34685 14.8353 4.60031 14.1084 5.09587C13.4851 5.52083 13.0163 6.05549 12.7129 6.69646H11.2637C10.962 6.05395 10.4898 5.51945 9.86035 5.0949C9.12844 4.60124 8.33337 4.34687 7.48438 4.34685C6.41178 4.34685 5.49095 4.70988 4.75879 5.44353C4.02533 6.17834 3.66414 7.10693 3.66406 8.1906C3.66406 8.83026 3.79203 9.46811 4.04102 10.1008C4.29368 10.7433 4.73311 11.4482 5.33594 12.2121C5.93963 12.9771 6.75257 13.8635 7.77051 14.8683H7.77148C8.7881 15.8717 10.0796 17.0822 11.6445 18.4992L11.9805 18.8039L12.3164 18.4992C13.9002 17.0634 15.2057 15.841 16.2314 14.8332C17.2589 13.8237 18.0779 12.935 18.6816 12.1681C19.283 11.404 19.7199 10.7031 19.9688 10.0705C20.2133 9.44815 20.3388 8.8209 20.3389 8.19158C20.3389 7.10625 19.9734 6.1771 19.2334 5.44255C18.4949 4.70946 17.5675 4.34686 16.4873 4.34685ZM4.66406 8.1906C4.66414 7.34998 4.93548 6.68291 5.4668 6.15056C5.99929 5.61695 6.65969 5.34685 7.48438 5.34685C8.12128 5.34687 8.72408 5.53339 9.30176 5.92302C9.87659 6.31073 10.2546 6.79106 10.4609 7.3654L10.5801 7.69646H13.3926L13.5127 7.36833C13.724 6.79084 14.1033 6.30969 14.6719 5.92204C15.2407 5.53427 15.8423 5.34685 16.4873 5.34685C17.3224 5.34686 17.9911 5.61732 18.5293 6.15154C19.0661 6.68429 19.3389 7.35201 19.3389 8.19158C19.3388 8.68479 19.2409 9.18809 19.0381 9.70427C18.8389 10.2107 18.4657 10.8245 17.8955 11.549C17.3276 12.2704 16.5411 13.1272 15.5303 14.1203C14.5903 15.0438 13.4064 16.1536 11.9795 17.4523C10.5719 16.1722 9.40339 15.074 8.47363 14.1564C7.47202 13.1677 6.68906 12.3139 6.12012 11.5929C5.54996 10.8705 5.17501 10.2516 4.97168 9.73454C4.76445 9.20802 4.66406 8.69412 4.66406 8.1906Z" stroke="var(--stroke-0, white)"/>
</g>
</g>
</g>
</svg>
