<svg width="24" height="24" viewBox="0 0 24 24" fill="none" xmlns="http://www.w3.org/2000/svg">
<mask id="mask0_1179_17462" style="mask-type:alpha" maskUnits="userSpaceOnUse" x="0" y="0" width="24" height="24">
<rect width="24" height="24" fill="#D9D9D9"/>
</mask>
<g mask="url(#mask0_1179_17462)">
<path d="M10.4597 18.6328L11.9819 19.9434L13.5044 18.6328C14.9883 17.3571 16.2141 16.2543 17.1817 15.3244C18.1492 14.3945 18.9158 13.5628 19.4813 12.8291C20.0468 12.0955 20.4403 11.4162 20.6618 10.7912C20.8834 10.1661 20.9941 9.52346 20.9941 8.86331C20.9941 7.46189 20.5023 6.29151 19.5187 5.35217C18.5349 4.41296 17.309 3.94336 15.8411 3.94336C15.1066 3.94336 14.4073 4.07837 13.7432 4.3484C13.0793 4.61829 12.4922 5.00752 11.9819 5.51611C11.4718 5.00752 10.8847 4.61829 10.2206 4.3484C9.55672 4.07837 8.85743 3.94336 8.12275 3.94336C6.66185 3.94336 5.44185 4.41296 4.46277 5.35217C3.48368 6.29151 2.99414 7.46189 2.99414 8.86331C2.99414 9.53126 3.10691 10.1777 3.33246 10.8027C3.55801 11.4279 3.9515 12.1091 4.51294 12.8466C5.07452 13.584 5.83706 14.4158 6.80056 15.3419C7.76407 16.2679 8.98378 17.3649 10.4597 18.6328Z" fill="black"/>
<path d="M15.8408 4.44336C17.1912 4.44336 18.2899 4.87105 19.1729 5.71387C20.0544 6.55568 20.4941 7.59381 20.4941 8.86328C20.4941 9.46621 20.393 10.0523 20.1904 10.624C19.992 11.1839 19.6299 11.8164 19.085 12.5234C18.5395 13.2309 17.7918 14.0442 16.835 14.9639C15.8763 15.8852 14.6584 16.9818 13.1787 18.2539H13.1777L11.9814 19.2832L10.7861 18.2539H10.7852C9.31358 16.9897 8.10194 15.8988 7.14746 14.9814C6.19533 14.0663 5.45194 13.254 4.91113 12.5439C4.36932 11.8323 4.00572 11.1954 3.80273 10.6328C3.59698 10.0626 3.49414 9.47361 3.49414 8.86328C3.49415 7.5931 3.93146 6.55448 4.80859 5.71289C5.68701 4.87025 6.78027 4.44336 8.12305 4.44336C8.79466 4.4434 9.42974 4.56649 10.0322 4.81152C10.6343 5.05623 11.1657 5.40828 11.6289 5.87012L11.9814 6.22168L12.335 5.87012C12.7984 5.40827 13.3297 5.05622 13.9316 4.81152C14.5343 4.56649 15.1694 4.44339 15.8408 4.44336Z" stroke="black"/>
</g>
</svg>
