<svg preserveAspectRatio="none" overflow="visible" style="display: block;" width="73" height="13" viewBox="0 0 73 13" fill="none" xmlns="http://www.w3.org/2000/svg">
<g id="Frame 3249001">
<path id="Star 11" d="M6.30965 0.590212C6.36926 0.405395 6.63074 0.405394 6.69035 0.590211L7.90702 4.3628C7.93372 4.44557 8.01084 4.5016 8.09781 4.50141L12.0617 4.49274C12.2559 4.49232 12.3367 4.74101 12.1794 4.8548L8.96739 7.17773C8.89693 7.22869 8.86747 7.31935 8.89452 7.40201L10.1277 11.1692C10.1881 11.3538 9.97655 11.5075 9.81969 11.393L6.61791 9.05606C6.54766 9.00479 6.45234 9.00479 6.38209 9.05606L3.18031 11.393C3.02345 11.5075 2.81191 11.3538 2.87232 11.1692L4.10548 7.40201C4.13253 7.31935 4.10307 7.22869 4.0326 7.17773L0.820637 4.8548C0.663285 4.74101 0.744087 4.49232 0.938277 4.49274L4.90219 4.50141C4.98916 4.5016 5.06628 4.44557 5.09298 4.3628L6.30965 0.590212Z" fill="black"/>
<path id="Star 12" d="M21.3097 0.590212C21.3693 0.405395 21.6307 0.405394 21.6903 0.590211L22.907 4.3628C22.9337 4.44557 23.0108 4.5016 23.0978 4.50141L27.0617 4.49274C27.2559 4.49232 27.3367 4.74101 27.1794 4.8548L23.9674 7.17773C23.8969 7.22869 23.8675 7.31935 23.8945 7.40201L25.1277 11.1692C25.1881 11.3538 24.9765 11.5075 24.8197 11.393L21.6179 9.05606C21.5477 9.00479 21.4523 9.00479 21.3821 9.05606L18.1803 11.393C18.0235 11.5075 17.8119 11.3538 17.8723 11.1692L19.1055 7.40201C19.1325 7.31935 19.1031 7.22869 19.0326 7.17773L15.8206 4.8548C15.6633 4.74101 15.7441 4.49232 15.9383 4.49274L19.9022 4.50141C19.9892 4.5016 20.0663 4.44557 20.093 4.3628L21.3097 0.590212Z" fill="black"/>
<path id="Star 13" d="M36.3097 0.590212C36.3693 0.405395 36.6307 0.405394 36.6903 0.590211L37.907 4.3628C37.9337 4.44557 38.0108 4.5016 38.0978 4.50141L42.0617 4.49274C42.2559 4.49232 42.3367 4.74101 42.1794 4.8548L38.9674 7.17773C38.8969 7.22869 38.8675 7.31935 38.8945 7.40201L40.1277 11.1692C40.1881 11.3538 39.9765 11.5075 39.8197 11.393L36.6179 9.05606C36.5477 9.00479 36.4523 9.00479 36.3821 9.05606L33.1803 11.393C33.0235 11.5075 32.8119 11.3538 32.8723 11.1692L34.1055 7.40201C34.1325 7.31935 34.1031 7.22869 34.0326 7.17773L30.8206 4.8548C30.6633 4.74101 30.7441 4.49232 30.9383 4.49274L34.9022 4.50141C34.9892 4.5016 35.0663 4.44557 35.093 4.3628L36.3097 0.590212Z" fill="black"/>
<path id="Star 14" d="M51.3097 0.590212C51.3693 0.405395 51.6307 0.405394 51.6903 0.590211L52.907 4.3628C52.9337 4.44557 53.0108 4.5016 53.0978 4.50141L57.0617 4.49274C57.2559 4.49232 57.3367 4.74101 57.1794 4.8548L53.9674 7.17773C53.8969 7.22869 53.8675 7.31935 53.8945 7.40201L55.1277 11.1692C55.1881 11.3538 54.9765 11.5075 54.8197 11.393L51.6179 9.05606C51.5477 9.00479 51.4523 9.00479 51.3821 9.05606L48.1803 11.393C48.0235 11.5075 47.8119 11.3538 47.8723 11.1692L49.1055 7.40201C49.1325 7.31935 49.1031 7.22869 49.0326 7.17773L45.8206 4.8548C45.6633 4.74101 45.7441 4.49232 45.9383 4.49274L49.9022 4.50141C49.9892 4.5016 50.0663 4.44557 50.093 4.3628L51.3097 0.590212Z" fill="black"/>
<path id="Star 15" d="M66.3097 0.590212C66.3693 0.405395 66.6307 0.405394 66.6903 0.590211L67.907 4.3628C67.9337 4.44557 68.0108 4.5016 68.0978 4.50141L72.0617 4.49274C72.2559 4.49232 72.3367 4.74101 72.1794 4.8548L68.9674 7.17773C68.8969 7.22869 68.8675 7.31935 68.8945 7.40201L70.1277 11.1692C70.1881 11.3538 69.9765 11.5075 69.8197 11.393L66.6179 9.05606C66.5477 9.00479 66.4523 9.00479 66.3821 9.05606L63.1803 11.393C63.0235 11.5075 62.8119 11.3538 62.8723 11.1692L64.1055 7.40201C64.1325 7.31935 64.1031 7.22869 64.0326 7.17773L60.8206 4.8548C60.6633 4.74101 60.7441 4.49232 60.9383 4.49274L64.9022 4.50141C64.9892 4.5016 65.0663 4.44557 65.093 4.3628L66.3097 0.590212Z" fill="black"/>
</g>
</svg>
