<svg width="24" height="24" viewBox="0 0 24 24" fill="none" xmlns="http://www.w3.org/2000/svg">
<mask id="mask0_1177_17441" style="mask-type:alpha" maskUnits="userSpaceOnUse" x="0" y="0" width="24" height="24">
<rect width="24" height="24" fill="#D9D9D9"/>
</mask>
<g mask="url(#mask0_1177_17441)">
<path d="M15.8408 4.44336C17.1912 4.44336 18.2899 4.87105 19.1729 5.71387C20.0544 6.55568 20.4941 7.59381 20.4941 8.86328C20.4941 9.46621 20.393 10.0523 20.1904 10.624C19.992 11.1839 19.6299 11.8164 19.085 12.5234C18.5395 13.2309 17.7918 14.0442 16.835 14.9639C15.8763 15.8852 14.6584 16.9818 13.1787 18.2539H13.1777L11.9814 19.2832L10.7861 18.2539H10.7852C9.31358 16.9897 8.10194 15.8988 7.14746 14.9814C6.19533 14.0663 5.45194 13.254 4.91113 12.5439C4.36932 11.8323 4.00572 11.1954 3.80273 10.6328C3.59698 10.0626 3.49414 9.47361 3.49414 8.86328C3.49415 7.5931 3.93146 6.55448 4.80859 5.71289C5.68701 4.87025 6.78027 4.44336 8.12305 4.44336C8.79466 4.4434 9.42974 4.56649 10.0322 4.81152C10.6343 5.05623 11.1657 5.40828 11.6289 5.87012L11.9814 6.22168L12.335 5.87012C12.7984 5.40827 13.3297 5.05622 13.9316 4.81152C14.5343 4.56649 15.1694 4.44339 15.8408 4.44336Z" stroke="black"/>
</g>
</svg>
